<?xml version="1.0" encoding="UTF-8"?>
<svg xmlns="http://www.w3.org/2000/svg" xmlns:xlink="http://www.w3.org/1999/xlink" width="10pt" height="10pt" viewBox="0 0 10 10" version="1.1">
<g id="surface1">
<path style=" stroke:none;fill-rule:nonzero;fill:rgb(75.686275%,12.54902%,12.54902%);fill-opacity:1;" d="M 7.632812 4.410156 C 7.632812 5.863281 6.453125 7.042969 5 7.042969 C 3.546875 7.042969 2.367188 5.863281 2.367188 4.410156 C 2.367188 2.957031 3.546875 1.777344 5 1.777344 C 6.453125 1.777344 7.632812 2.957031 7.632812 4.410156 Z M 7.632812 4.410156 "/>
<path style=" stroke:none;fill-rule:nonzero;fill:rgb(75.686275%,12.54902%,12.54902%);fill-opacity:1;" d="M 8.09375 1.335938 C 7.265625 0.511719 6.167969 0.0546875 5 0.0546875 C 3.832031 0.0546875 2.734375 0.511719 1.90625 1.335938 C 1.082031 2.164062 0.625 3.261719 0.625 4.429688 C 0.625 6.488281 2.066406 8.269531 4.070312 8.703125 L 5 9.945312 L 5.929688 8.703125 C 7.933594 8.269531 9.375 6.488281 9.375 4.429688 C 9.375 3.261719 8.917969 2.164062 8.09375 1.335938 Z M 5 1.195312 C 6.769531 1.195312 8.210938 2.636719 8.210938 4.410156 C 8.210938 6.179688 6.769531 7.621094 5 7.621094 C 3.230469 7.621094 1.789062 6.179688 1.789062 4.410156 C 1.789062 2.636719 3.230469 1.195312 5 1.195312 Z M 5 1.195312 "/>
</g>
</svg>
