<svg width="300" height="121" fill="none" xmlns="http://www.w3.org/2000/svg"><path d="M82.127 74.157c3.314 3.705 6.018 6.933 7.98 9.182L68.661 97.522 49.918 66.508c-5.594 10.215-12.22 20.878-19.564 32.151L9.226 82.307c6.84-7.542 13.758-14.66 21.128-21.593a238.99 238.99 0 005.488-5.265c-2.28-.423-9.014-1.879-20.095-4.657C7.767 48.728 2.493 47.379 0 46.452l8.51-24.714C20.731 26.713 31.6 32.296 41.117 38.17 38.943 22.876 37.803 10.492 37.803.86h24.549c0 6.828-1.246 19.343-3.74 37.522 1.884-.82 5.913-2.567 12.01-5.478 8.404-3.81 16.171-7.012 23.303-9.711l7.475 25.429c-10.471 2.276-22.48 4.552-36.16 6.827l16.887 18.708" fill="#70C833"/><path d="M111.395 88.89l2.039-.51v-8.987a5.869 5.869 0 01-1.19.509c-.974.339-2.051.508-3.228.508-2.787 0-4.843-.52-6.169-1.56-1.325-1.04-1.988-2.498-1.988-4.375v-7.8l-2.04-.51v-.508h9.687v.509l-2.039.509v7.8c0 1.832.316 3.137.951 3.917.634.78 1.62 1.17 2.957 1.17.77 0 1.496-.17 2.175-.508.34-.158.634-.328.884-.509v-11.87l-2.039-.51v-.508h9.686v.509l-2.039.509V88.38l2.039.51v.508h-9.686v-.509zM133.452 80.75a8.34 8.34 0 001.224-.17c.022-.113.079-.362.17-.746.113-.565.17-1.165.17-1.798 0-1.876-.25-3.25-.748-4.12-.499-.87-1.099-1.306-1.801-1.306-1.7 0-2.549 2.77-2.549 8.309 1.449 0 2.628-.056 3.534-.17zm-6.899 6.765c-1.609-1.594-2.414-3.792-2.414-6.596 0-1.831.352-3.425 1.054-4.782.702-1.357 1.683-2.396 2.94-3.12 1.258-.723 2.702-1.085 4.334-1.085 1.631 0 3.064.305 4.299.915 1.235.61 2.186 1.43 2.855 2.46a6.13 6.13 0 011.002 3.408c0 .565-.057 1.05-.17 1.458l-.169.576c-.975.204-2.029.374-3.161.509-2.379.34-4.781.509-7.205.509 0 2.623.361 4.494 1.087 5.613.725 1.119 1.722 1.678 2.991 1.678a5.02 5.02 0 002.464-.627 4.892 4.892 0 001.801-1.662c.442-.69.663-1.395.663-2.12h.85c0 .905-.272 1.764-.816 2.578-.543.814-1.303 1.464-2.277 1.95-.974.486-2.096.73-3.365.73-2.901 0-5.155-.798-6.763-2.392zM145.585 87.515c-1.609-1.594-2.413-3.792-2.413-6.596 0-2.803.804-5.003 2.413-6.596 1.609-1.594 3.863-2.391 6.764-2.391 2.084 0 3.653.362 4.707 1.085 1.054.724 1.581 1.606 1.581 2.645 0 .77-.233 1.385-.697 1.848-.465.465-1.082.695-1.853.695-.317 0-.634-.022-.951-.067l-.408-.102v-5.087l-.476-.17c-.34-.113-.748-.169-1.224-.169-1.291 0-2.294.61-3.007 1.831-.714 1.221-1.071 3.38-1.071 6.478 0 3.007.357 5.116 1.071 6.325.713 1.21 1.716 1.814 3.007 1.814.884 0 1.705-.208 2.465-.627a4.907 4.907 0 001.801-1.662c.442-.69.663-1.395.663-2.12h.85c0 .905-.273 1.764-.816 2.578-.544.814-1.303 1.464-2.278 1.95-.974.486-2.096.73-3.364.73-2.901 0-5.155-.798-6.764-2.392zM164.414 88.89l2.039-.51V73.288h-2.549c0 1.244-.374 2.499-1.121 3.764a6.652 6.652 0 01-1.088 1.323h-1.02V72.44h16.994v5.935h-1.021a6.338 6.338 0 01-1.12-1.323c-.725-1.22-1.088-2.475-1.088-3.764h-2.548V88.38l2.038.51v.508h-9.516v-.509zM179.877 89.398v-.509l2.041-.509V73.458l-2.041-.509v-.509h9.516v.51l-2.039.507v6.953h5.098v-6.953l-2.038-.508v-.509h9.516v.51l-2.039.507V88.38l2.039.51v.508h-9.516v-.509l2.038-.509v-7.122h-5.098v7.122l2.039.51v.508h-9.516zM221.341 89.398v-.509l2.039-.509V73.458l-2.039-.509v-.509h9.517v.51l-2.039.507V88.38l2.039.51v.508h-9.517zm-9.516-.848c.997 0 1.784-.356 2.363-1.068.577-.713.866-1.77.866-3.172 0-1.401-.289-2.458-.866-3.17-.579-.713-1.366-1.07-2.363-1.07h-1.7v8.48h1.7zm-9.175.34l2.039-.51V73.458l-2.039-.509v-.509h9.516v.51l-2.041.507v5.766h1.7c5.892 0 8.837 1.696 8.837 5.087 0 3.392-2.945 5.088-8.837 5.088h-9.175v-.509zM242.889 80.75a8.273 8.273 0 001.223-.17c.024-.113.079-.362.17-.746a9.077 9.077 0 00.171-1.798c0-1.876-.25-3.25-.748-4.12-.499-.87-1.1-1.306-1.801-1.306-1.7 0-2.549 2.77-2.549 8.309 1.45 0 2.628-.056 3.534-.17zm-6.898 6.765c-1.609-1.594-2.413-3.792-2.413-6.596 0-1.831.351-3.425 1.052-4.782.703-1.357 1.683-2.396 2.94-3.12 1.259-.723 2.703-1.085 4.334-1.085 1.631 0 3.064.305 4.299.915 1.236.61 2.187 1.43 2.855 2.46a6.14 6.14 0 011.003 3.408c0 .565-.057 1.05-.171 1.458l-.17.576c-.972.204-2.026.374-3.159.509-2.38.34-4.783.509-7.206.509 0 2.623.363 4.494 1.088 5.613.725 1.119 1.721 1.678 2.99 1.678a5.01 5.01 0 002.463-.627 4.887 4.887 0 001.802-1.662c.442-.69.663-1.395.663-2.12h.849c0 .905-.272 1.764-.815 2.578-.544.814-1.302 1.464-2.277 1.95-.976.486-2.096.73-3.365.73-2.899 0-5.155-.798-6.762-2.392zM98.65 114.956c-.566-.543-.85-1.289-.85-2.238 0-.746.255-1.385.764-1.917.51-.531 1.105-.797 1.785-.797.181 0 .362.017.544.051.181.034.306.051.373.051l.443.068v4.579c.543-.249 1.019-.747 1.427-1.493.408-.746.668-2.001.781-3.764l.68-10.005-2.379-.678v-.51h15.804v.51l-2.039.508v14.923l2.039.509v.508h-9.516v-.508l2.039-.509V99.151h-4.928l-.68 10.345c-.136 2.148-.567 3.73-1.291 4.748-.726 1.017-1.598 1.526-2.617 1.526-1.02 0-1.813-.271-2.38-.814zM141.49 113.243c.555-1.232.833-3.385.833-6.46s-.278-5.229-.833-6.462c-.555-1.231-1.24-1.847-2.056-1.847-.816 0-1.501.616-2.056 1.847-.556 1.233-.833 3.387-.833 6.462 0 3.075.277 5.228.833 6.46.555 1.233 1.24 1.849 2.056 1.849.816 0 1.501-.616 2.056-1.849zm-8.241.221c-1.564-1.537-2.392-3.652-2.482-6.343h-2.549v7.123l2.04.509v.508h-9.517v-.508l2.039-.509V99.321l-2.039-.508v-.51h9.517v.51l-2.04.508v6.953h2.549c.045-1.741.436-3.25 1.173-4.528a7.463 7.463 0 013.025-2.933c1.28-.68 2.77-1.018 4.469-1.018 1.744 0 3.268.362 4.571 1.085 1.303.724 2.312 1.758 3.025 3.103.714 1.346 1.071 2.946 1.071 4.8 0 1.854-.357 3.453-1.071 4.799-.713 1.345-1.722 2.379-3.025 3.103-1.303.723-2.827 1.085-4.571 1.085-2.56 0-4.622-.768-6.185-2.306zM160.336 114.413V99.151h-5.268l-.68 10.345c-.113 1.424-.544 2.668-1.291 3.73-.34.475-.703.871-1.088 1.187h8.327zm-12.235 0h2.718c.363-.248.759-.644 1.19-1.187.793-.994 1.246-2.238 1.36-3.73l.679-10.005-2.379-.678v-.51h16.144v.51l-2.039.508v15.092h3.059v6.444h-1.02a5.36 5.36 0 01-1.461-1.39c-.952-1.221-1.428-2.623-1.428-4.206h-12.915c0 1.56-.487 2.962-1.462 4.206a5.568 5.568 0 01-1.427 1.39h-1.019v-6.444zM170.702 115.261v-.508l2.038-.509V99.321l-2.038-.508v-.51h9.516v.51l-2.039.508v11.192l5.437-9.327v-1.865l-2.039-.508v-.51h9.516v.51l-2.039.508v14.923l2.039.509v.508h-9.516v-.508l2.039-.509v-11.192l-5.437 9.326v1.866l2.039.509v.508h-9.516zM201.01 99.275l-.82 2.209h2.393l.821-2.209h-2.394zm.365 5.495l.872-2.377h-2.396l-.99 2.663-.82-.286.885-2.377h-1.159v-.909h1.497l.821-2.209h-2.318v-.91h2.656l.99-2.662.82.298-.885 2.365h2.394l.99-2.663.82.285-.885 2.378h1.224v.91h-1.562l-.82 2.208h2.382v.909h-2.721l-.99 2.663-.805-.286zM207.347 104.926V99.08h.952l2.251 2.897 2.136-2.897h.923v5.846h-1.04v-4.261l-2.031 2.715h-.041l-2.108-2.715v4.261h-1.042zM220.938 104.926V99.08h1.042v5.846h-1.042zm-4.401-3.118v2.144h.756c1.001 0 1.418-.351 1.418-1.065 0-.715-.467-1.079-1.406-1.079h-.768zm-1.042 3.118V99.08h1.042v1.754h.963c1.667 0 2.318.832 2.318 2.014 0 .584-.196 1.078-.587 1.481-.377.402-1.001.597-1.848.597h-1.888zM228.254 99.08v5.846h-1.042v-2.273c-.456.286-.99.429-1.629.429-1.392 0-2.081-.741-2.081-2.235V99.08h1.106v1.65c0 .922.415 1.377 1.261 1.377.549 0 .99-.117 1.343-.364V99.08h1.042zM230.843 101.484h3.553c-.05-.975-.689-1.56-1.691-1.56-1.042 0-1.745.637-1.862 1.56zm4.23 2.806c-.56.507-1.302.766-2.201.766-.949 0-1.705-.273-2.277-.831-.572-.559-.858-1.299-.858-2.222 0-.883.272-1.611.806-2.182.534-.585 1.275-.87 2.212-.87.771 0 1.422.246 1.941.753.52.493.78 1.13.78 1.922 0 .273-.024.507-.064.702h-4.504c.09 1.091.884 1.754 2.043 1.754.768 0 1.369-.208 1.798-.611l.324.819zM241.816 104.082c-.481.623-1.328.974-2.253.974-.937 0-1.691-.273-2.277-.831-.572-.559-.859-1.299-.859-2.222 0-.857.287-1.584.847-2.169.558-.585 1.276-.884 2.12-.884 1.03 0 1.797.26 2.305.767l-.481.818c-.444-.403-1.004-.61-1.679-.61-.548 0-1.016.194-1.421.597-.389.39-.584.884-.584 1.481 0 .624.195 1.131.598 1.507.403.377.911.572 1.51.572.677 0 1.237-.247 1.678-.753l.496.753zM242.348 100.119V99.08h5.339v1.039h-2.149v4.807h-1.042v-4.807h-2.148zM253.113 104.926v-2.468h-3.254v2.468h-1.042V99.08h1.042v2.404h3.254V99.08h1.042v5.846h-1.042zM261.485 104.926V99.08h1.04v5.846h-1.04zm-4.402-3.118v2.144h.756c1.002 0 1.419-.351 1.419-1.065 0-.715-.47-1.079-1.407-1.079h-.768zm-1.042 3.118V99.08h1.042v1.754h.964c1.666 0 2.317.832 2.317 2.014 0 .584-.195 1.078-.586 1.481-.377.402-1.002.597-1.848.597h-1.889zM265.114 101.484h3.555c-.052-.975-.689-1.56-1.693-1.56-1.042 0-1.745.637-1.862 1.56zm4.232 2.806c-.56.507-1.302.766-2.2.766-.952 0-1.705-.273-2.278-.831-.574-.559-.86-1.299-.86-2.222 0-.883.274-1.611.808-2.182.534-.585 1.276-.87 2.213-.87.767 0 1.418.246 1.938.753.522.493.782 1.13.782 1.922 0 .273-.026.507-.064.702h-4.504c.09 1.091.884 1.754 2.043 1.754.768 0 1.366-.208 1.796-.611l.326.819zM274.942 104.926v-4.807h-2.057l-.065.988c-.271 3.326-1.132 3.897-2.355 3.897l-.079-1.013c.429.039 1.276-.39 1.419-3.092l.105-1.819h4.074v5.846h-1.042zM283.235 104.017c1.092 0 1.848-.806 1.848-2.014 0-1.195-.741-2.013-1.848-2.013-1.094 0-1.862.818-1.862 2.013 0 1.208.768 2.014 1.862 2.014zm-5.376.909V99.08h1.106v2.339h1.276c.248-1.468 1.38-2.469 2.954-2.469.911 0 1.655.286 2.213.87.56.572.846 1.3.846 2.183 0 .884-.286 1.611-.858 2.196-.561.571-1.302.857-2.201.857-.82 0-1.498-.234-2.029-.714-.534-.481-.847-1.117-.94-1.884h-1.261v2.468h-1.106zM289.339 101.029c-.116 1.364-.481 2.507-.794 2.923h2.838v-3.897h-1.979l-.065.974zm-2.63 5.326v-2.403h.728c.417-.52.796-1.806.899-3.325l.093-1.547h3.996v4.872h.975v2.403h-.975v-1.429h-4.74v1.429h-.976zM295.572 104.926h-1.039V99.08h1.039v4.352l3.386-4.352H300v5.846h-1.042v-4.352l-3.386 4.352z" fill="#040606"/></svg>
