<?xml version="1.0" encoding="UTF-8"?>
<svg xmlns="http://www.w3.org/2000/svg" xmlns:xlink="http://www.w3.org/1999/xlink" width="30pt" height="30pt" viewBox="0 0 30 30" version="1.1">
<g id="surface1">
<path style=" stroke:none;fill-rule:nonzero;fill:#02c39a;fill-opacity:1;" d="M 30 15 C 30 23.285156 23.285156 30 15 30 C 6.714844 30 0 23.285156 0 15 C 0 6.714844 6.714844 0 15 0 C 23.285156 0 30 6.714844 30 15 Z M 30 15 "/>
<path style=" stroke:none;fill-rule:nonzero;fill:#00a896;fill-opacity:1;" d="M 29.925781 16.5 L 20.523438 7.09375 L 5.878906 16.378906 L 10.976562 21.480469 L 6.761719 24.238281 L 12.277344 29.753906 C 13.160156 29.914062 14.070312 30 15 30 C 22.777344 30 29.171875 24.078125 29.925781 16.5 Z M 29.925781 16.5 "/>
<path style=" stroke:none;fill-rule:nonzero;fill:rgb(100%,100%,100%);fill-opacity:1;" d="M 17.210938 3.78125 L 9.476562 3.78125 L 9.476562 21.40625 L 20.523438 21.40625 L 20.523438 7.09375 Z M 17.210938 3.78125 "/>
<path style=" stroke:none;fill-rule:nonzero;fill:rgb(91.372549%,92.54902%,95.686275%);fill-opacity:1;" d="M 20.523438 7.09375 L 17.210938 3.78125 L 15 3.78125 L 15 21.40625 L 20.523438 21.40625 Z M 20.523438 7.09375 "/>
<path style=" stroke:none;fill-rule:nonzero;fill:rgb(80.392157%,81.960784%,87.843137%);fill-opacity:1;" d="M 17.210938 7.09375 L 20.523438 7.09375 L 17.210938 3.78125 Z M 17.210938 7.09375 "/>
<path style=" stroke:none;fill-rule:nonzero;fill:rgb(94.509804%,80%,18.823529%);fill-opacity:1;" d="M 6.761719 13.710938 L 23.238281 13.710938 L 23.238281 24.238281 L 6.761719 24.238281 Z M 6.761719 13.710938 "/>
<path style=" stroke:none;fill-rule:nonzero;fill:rgb(92.54902%,72.54902%,19.215686%);fill-opacity:1;" d="M 15 13.710938 L 23.238281 13.710938 L 23.238281 24.238281 L 15 24.238281 Z M 15 13.710938 "/>
<path style=" stroke:none;fill-rule:nonzero;fill:rgb(91.372549%,65.490196%,15.294118%);fill-opacity:1;" d="M 5.878906 12.117188 L 24.121094 12.117188 L 24.121094 16.378906 L 5.878906 16.378906 Z M 5.878906 12.117188 "/>
<path style=" stroke:none;fill-rule:nonzero;fill:rgb(90.196078%,58.039216%,13.72549%);fill-opacity:1;" d="M 15 12.117188 L 24.121094 12.117188 L 24.121094 16.378906 L 15 16.378906 Z M 15 12.117188 "/>
</g>
</svg>
