<svg width="5346" height="3429" viewBox="0 0 5346 3429" fill="none" xmlns="http://www.w3.org/2000/svg">
<path d="M78.054 3287.86C51.5559 3324.86 211.858 3389.32 300.056 3428.86C342.56 3316.87 246.016 3234.74 241.06 3130.87C228.276 2862.93 342.635 2620.06 698.06 2395.37C669.043 2518.83 673.937 2570.18 711.56 2637.37C759.155 2892.71 852.49 2928.86 919 3159.93C927.522 3240.19 933.029 3283.87 967 3317.93L996.5 3266.43C1024.72 3281.34 1032.27 3293.67 1041 3317.93C1054.3 3390 1061.88 3403.4 1075.5 3403.93C1320.31 3414.47 1339.86 3412.17 1315.5 3403.93C1331 3355.93 1217.98 3280.24 1187 3240.93C1047.12 3063.45 1009.89 2891.18 1041 2700.43C1079 2467.43 1220 2596.43 1264.5 2275.43C1726.14 2431.47 1614.69 2471.88 2118.5 2395.37C2170 2868.37 2320 2705.95 2407 3212.94C2406.65 3281.98 2434.01 3382.08 2454.5 3383.44C2667.43 3432.14 2795.42 3436.98 2752.06 3395C2787.28 3387.56 2702.51 3273.55 2612.5 3161.5C2582.04 2975.91 2709.5 2786.44 2734 2622.94C2758.5 2459.44 2926.5 2379.81 2942.5 2395.37C2950.95 2403.59 3122.5 2455.44 3272.75 2744.94C3446.77 2956.89 3479.3 3181.22 3710 3306.94C3725.38 3367.67 3748.07 3400.23 3772 3395C3898.58 3391.95 4036.49 3382.17 4130 3354.44C4071.5 3240.94 4032 3217.56 3871 3161.5C3710 3105.44 3729 2643.44 3809.5 2492.44C3809.5 2310.44 3883.68 2546.9 3997.5 2492.44C4189.86 2406.5 4151.14 2158.77 4346.5 2240.44C4440.44 2498.12 4517.42 2460.19 4704.56 2577.44C4847.39 2409.7 4918.67 2314.3 4962.06 2136.44C5003.18 2145.04 5021.67 2143.15 5041.56 2120.44C5052.12 2134.2 5061.47 2138.35 5087.06 2136.44C5153.35 2108.69 5186.92 2090.18 5224.56 2038.94C5211.08 1998.34 5207.88 1994.95 5224.56 1960.44C5255.92 1882.96 5265.76 1844.62 5271.06 1784.44C5221.38 1584.88 5195.85 1473.38 5345.06 1306.94C5207.74 768.836 5112.71 688.401 4530.5 706.934C3899.19 -241.407 2820.5 -126.363 1765.5 412.709C710.5 951.782 791.499 465.929 387.5 730.929C-16.4994 995.929 107.318 1165.74 206.557 1741.36C-10.0628 1944.04 -23.6902 2058.17 20.0566 2265.86C259.692 2109.09 271.055 2051.86 251.557 1741.36C232.059 1430.86 268.019 1017.9 424.056 961.863C424.056 961.863 282.556 1152.86 320.556 1544.36C358.556 1935.86 376.556 1897.36 300.056 2135.86C249.209 2294.39 171.363 2219.36 181.056 2398.86C186.26 2495.23 124.057 2590.36 106.057 2738.86C88.0567 2887.36 68.2634 2964.58 49.5559 3034.36C9.162 3185.05 0.498903 3106.72 14.5537 3161.86C28.6085 3217.01 45.554 3191.86 45.554 3191.86C67.4232 3172.61 74.554 3167.36 82.5559 3168.86C90.5578 3170.36 104.552 3250.86 78.054 3287.86Z" fill="#FA7F25"/>
<path d="M4721.04 1139.95C4721.04 1139.95 4752.55 1187.45 4794.54 1197.45C4818.52 1203.17 4807.06 1292.94 4721.04 1326.96C4656.43 1352.51 4505.29 1355.36 4541.54 1218.95C4626.05 900.954 4751.27 855.251 4952.54 869.955C4860.66 875.872 4809.87 926.58 4721.04 1139.95Z" fill="white" stroke="white" stroke-width="30"/>
<path d="M5346 825C4984.95 609.841 4531.39 328.68 4440.5 751.5L4765.5 781C4865.02 636.917 5116.81 867.349 5346 825Z" fill="#FA7F25"/>
<path d="M4787 486.651C4536.48 420.406 4309.72 370.348 4093 623.613L4510 769.651C4609.52 625.569 4365.5 504.151 4787 486.651Z" fill="#FA7F25"/>
<path d="M4393.5 348.5C4110 243 3993.72 281.348 3777 534.613L4194 680.651C4293.52 536.569 4219 454 4393.5 348.5Z" fill="#FA7F25"/>
</svg>
